<?xml version="1.0" encoding="UTF-8" standalone="no"?>
<!DOCTYPE svg PUBLIC "-//W3C//DTD SVG 1.1//EN" "http://www.w3.org/Graphics/SVG/1.1/DTD/svg11.dtd">
<svg version="1.1" xmlns="http://www.w3.org/2000/svg" xmlns:xlink="http://www.w3.org/1999/xlink" preserveAspectRatio="xMidYMid meet" viewBox="61.22222222222223 61.22222222222223 519.5555555555557 519.5555555555557" width="515.56" height="515.56"><defs><path d="M320 62.22C177.63 62.22 62.22 177.63 62.22 320C62.22 462.37 177.63 577.78 320 577.78C462.37 577.78 577.78 462.37 577.78 320C577.78 177.63 462.37 62.22 320 62.22Z" id="hBAi67IbV"></path><path d="M320 88.89C192.36 88.89 88.89 192.36 88.89 320C88.89 447.64 192.36 551.11 320 551.11C447.64 551.11 551.11 447.64 551.11 320C551.11 192.36 447.64 88.89 320 88.89Z" id="a2UZ4GpgJo"></path><path d="M320 142.22L347.22 254.29L445.71 194.29L385.71 292.78L497.78 320L385.71 347.22L445.71 445.71L347.22 385.71L320 497.78L292.78 385.71L194.29 445.71L254.29 347.22L142.22 320L254.29 292.78L194.29 194.29L292.78 254.29L320 142.22Z" id="dDLx3LSWf"></path><path d="M308.32 368.85L464.36 464.52L368.73 308.46L308.32 368.85Z" id="bnOaj05Tg"></path><path d="M331.68 271.41L175.63 175.75L271.27 331.82L331.68 271.41Z" id="b9ZvLfbq9"></path><path d="M320 265.83C290 265.83 265.69 290.15 265.69 320.14C265.69 350.14 290 374.45 320 374.45C350 374.45 374.31 350.14 374.31 320.14C374.31 290.15 350 265.83 320 265.83Z" id="d5fZSHYZ"></path><path d="M320 290.84C303.82 290.84 290.7 303.96 290.7 320.14C290.7 336.32 303.82 349.44 320 349.44C336.18 349.44 349.3 336.32 349.3 320.14C349.3 303.96 336.18 290.84 320 290.84Z" id="h1e2OqHHon"></path></defs><g><g><use xlink:href="#hBAi67IbV" opacity="1" fill="#f4900c" fill-opacity="1"></use><g><use xlink:href="#hBAi67IbV" opacity="1" fill-opacity="0" stroke="#000000" stroke-width="1" stroke-opacity="0"></use></g></g><g><use xlink:href="#a2UZ4GpgJo" opacity="1" fill="#f5f8fa" fill-opacity="1"></use><g><use xlink:href="#a2UZ4GpgJo" opacity="1" fill-opacity="0" stroke="#000000" stroke-width="1" stroke-opacity="0"></use></g></g><g><use xlink:href="#dDLx3LSWf" opacity="1" fill="#ccd6dd" fill-opacity="1"></use><g><use xlink:href="#dDLx3LSWf" opacity="1" fill-opacity="0" stroke="#000000" stroke-width="1" stroke-opacity="0"></use></g></g><g><use xlink:href="#bnOaj05Tg" opacity="1" fill="#292f33" fill-opacity="1"></use><g><use xlink:href="#bnOaj05Tg" opacity="1" fill-opacity="0" stroke="#000000" stroke-width="1" stroke-opacity="0"></use></g></g><g><use xlink:href="#b9ZvLfbq9" opacity="1" fill="#dd2e44" fill-opacity="1"></use><g><use xlink:href="#b9ZvLfbq9" opacity="1" fill-opacity="0" stroke="#000000" stroke-width="1" stroke-opacity="0"></use></g></g><g><use xlink:href="#d5fZSHYZ" opacity="1" fill="#8899a6" fill-opacity="1"></use><g><use xlink:href="#d5fZSHYZ" opacity="1" fill-opacity="0" stroke="#000000" stroke-width="1" stroke-opacity="0"></use></g></g><g><use xlink:href="#h1e2OqHHon" opacity="1" fill="#f5f8fa" fill-opacity="1"></use><g><use xlink:href="#h1e2OqHHon" opacity="1" fill-opacity="0" stroke="#000000" stroke-width="1" stroke-opacity="0"></use></g></g></g></svg>