<?xml version="1.0" encoding="UTF-8" standalone="no"?>
<!DOCTYPE svg PUBLIC "-//W3C//DTD SVG 1.1//EN" "http://www.w3.org/Graphics/SVG/1.1/DTD/svg11.dtd">
<svg version="1.1" xmlns="http://www.w3.org/2000/svg" xmlns:xlink="http://www.w3.org/1999/xlink" preserveAspectRatio="xMidYMid meet" viewBox="208.16859927015219 177.08878234631158 111.09369581181505 86.78688524590183" width="107.09" height="82.79"><defs><path d="M209.17 178.09L316.26 178.09L316.26 260.88L209.17 260.88L209.17 178.09Z" id="enynCOw2"></path><path d="M252.21 205.6C253.08 208.98 256.13 211.49 259.78 211.49C263.44 211.49 266.49 208.98 267.36 205.6C269.98 205.6 290.89 205.6 293.5 205.6C294.58 205.6 295.46 204.72 295.46 203.64C295.46 202.56 294.58 201.68 293.5 201.68C290.89 201.68 269.98 201.68 267.36 201.68C266.49 198.3 263.44 195.79 259.78 195.79C256.13 195.79 253.08 198.3 252.21 201.68C250.46 201.68 236.51 201.68 234.77 201.68C233.69 201.68 232.81 202.56 232.81 203.64C232.81 204.72 233.69 205.6 234.77 205.6C238.26 205.6 250.46 205.6 252.21 205.6ZM263.72 203.64C263.72 205.81 261.96 207.58 259.78 207.58C257.61 207.58 255.85 205.81 255.85 203.64C255.85 201.47 257.61 199.7 259.78 199.7C261.96 199.7 263.72 201.47 263.72 203.64Z" id="cgMjjCZiL"></path><path d="M289.31 217.34C288.43 213.96 285.38 211.45 281.73 211.45C278.08 211.45 275.03 213.96 274.16 217.34C270.22 217.34 238.71 217.34 234.77 217.34C233.69 217.34 232.81 218.22 232.81 219.3C232.81 220.38 233.69 221.26 234.77 221.26C238.71 221.26 270.22 221.26 274.16 221.26C275.03 224.64 278.08 227.16 281.73 227.16C285.38 227.16 288.43 224.64 289.31 221.26C289.73 221.26 293.08 221.26 293.5 221.26C294.58 221.26 295.46 220.38 295.46 219.3C295.46 218.22 294.58 217.34 293.5 217.34C292.66 217.34 289.73 217.34 289.31 217.34ZM277.79 219.3C277.79 217.13 279.56 215.36 281.73 215.36C283.9 215.36 285.67 217.13 285.67 219.3C285.67 221.47 283.9 223.24 281.73 223.24C279.56 223.24 277.79 221.47 277.79 219.3Z" id="l2sxzW7vhO"></path><path d="M255.57 233.01C254.69 229.63 251.64 227.11 247.99 227.11C244.34 227.11 241.29 229.63 240.42 233.01C239.85 233.01 235.33 233.01 234.77 233.01C233.69 233.01 232.81 233.88 232.81 234.96C232.81 236.04 233.69 236.92 234.77 236.92C235.33 236.92 239.85 236.92 240.42 236.92C241.29 240.3 244.34 242.82 247.99 242.82C251.64 242.82 254.69 240.3 255.57 236.92C259.36 236.92 289.71 236.92 293.5 236.92C294.58 236.92 295.46 236.04 295.46 234.96C295.46 233.88 294.58 233.01 293.5 233.01C285.92 233.01 259.36 233.01 255.57 233.01ZM244.06 234.96C244.06 232.79 245.82 231.03 247.99 231.03C250.16 231.03 251.93 232.79 251.93 234.96C251.93 237.14 250.16 238.9 247.99 238.9C245.82 238.9 244.06 237.14 244.06 234.96Z" id="dpRGITyZH"></path></defs><g><g><use xlink:href="#enynCOw2" opacity="1" fill="#ffffff" fill-opacity="0.5"></use><g><use xlink:href="#enynCOw2" opacity="1" fill-opacity="0" stroke="#000000" stroke-width="1" stroke-opacity="1"></use></g></g><g><g><use xlink:href="#cgMjjCZiL" opacity="0.8" fill="#1d1d1b" fill-opacity="1"></use><g><use xlink:href="#cgMjjCZiL" opacity="0.8" fill-opacity="0" stroke="#000000" stroke-width="1" stroke-opacity="0"></use></g></g><g><use xlink:href="#l2sxzW7vhO" opacity="0.8" fill="#1d1d1b" fill-opacity="1"></use><g><use xlink:href="#l2sxzW7vhO" opacity="0.8" fill-opacity="0" stroke="#000000" stroke-width="1" stroke-opacity="0"></use></g></g><g><use xlink:href="#dpRGITyZH" opacity="0.8" fill="#1d1d1b" fill-opacity="1"></use><g><use xlink:href="#dpRGITyZH" opacity="0.8" fill-opacity="0" stroke="#000000" stroke-width="1" stroke-opacity="0"></use></g></g></g></g></svg>