<svg xmlns="http://www.w3.org/2000/svg" viewBox="0 0 140.08 141.75"><g id="Barre_de_fer" data-name="Barre de fer"><polygon class="cls-1" points="89.09 141.75 139.09 16.76 140.08 16.76 90.08 141.75 89.09 141.75" fill="#6c6c6c"/></g><g id="R" class="cls-2" fill="#000000"><path class="cls-3" d="M74.73,46.77,74.63,71,60.08,35.38V21.15A50.84,50.84,0,0,0,59.34,11a10.84,10.84,0,0,0-2.88-5.42,10.66,10.66,0,0,0-4.21-2.81A22.72,22.72,0,0,0,46,1.68V.15H78.27c5.4,0,8.94,0,10.64.06Q99.28.68,105.16,3a22.11,22.11,0,0,1,10.27,8,21.29,21.29,0,0,1,3.65,12.34,20.3,20.3,0,0,1-7.9,16.72,22.54,22.54,0,0,1-5.31,3.08,47.77,47.77,0,0,1-7.8,2.27,20.58,20.58,0,0,1,6,3.48,16.09,16.09,0,0,1,2.81,3.51q1.26,2.11,3.81,7.46,6,12.24,9,17.9A54.29,54.29,0,0,0,124.76,86,10.79,10.79,0,0,0,128,88.85a12.4,12.4,0,0,0,4.31,1.07v1.54H110.11c-1.11-2.46-1.83-4-2.14-4.69l-4.68-10.63a169.55,169.55,0,0,0-8.5-16.93q-4.28-7.29-7.82-10a11.8,11.8,0,0,0-3.88-1.91A19.52,19.52,0,0,0,78,46.77Zm0-1.47h2.54q8.3,0,11.87-.94a15.44,15.44,0,0,0,6.72-3.88,22,22,0,0,0,7-16.59,24.44,24.44,0,0,0-2-9.93A20.62,20.62,0,0,0,95.2,6.3a16.37,16.37,0,0,0-6.69-3.18,51.82,51.82,0,0,0-11-.9H74.73Z"/></g><g id="A"><polygon class="cls-1" points="0 92.08 27.89 22.37 28.93 19.75 36.83 0 51.53 35.48 66.24 70.97 74.72 91.46 57.5 91.46 29.95 19.76 1 92.08 0 92.08" fill="#6c6c6c"/></g></svg>